<svg xmlns="http://www.w3.org/2000/svg" xmlns:xlink="http://www.w3.org/1999/xlink" width="500" zoomAndPan="magnify" viewBox="0 0 375 374.999991" height="500" preserveAspectRatio="xMidYMid meet" version="1.0"><defs><g/></defs><rect x="-37.5" width="450" fill="#ffffff" y="-37.499999" height="449.999989" fill-opacity="1"/><rect x="-37.5" width="450" fill="#ffffff" y="-37.499999" height="449.999989" fill-opacity="1"/><rect x="-37.5" width="450" fill="#000000" y="-37.499999" height="449.999989" fill-opacity="1"/><g fill="#ffffff" fill-opacity="1"><g transform="translate(37.500002, 140.81711)"><g><path d="M 4.15625 0 L 4.15625 -59.46875 L 16.390625 -59.46875 L 16.390625 0 Z M 4.15625 0 "/></g></g></g><g fill="#ffffff" fill-opacity="1"><g transform="translate(54.58249, 140.81711)"><g><path d="M 40.046875 -16.046875 L 14.3125 -16.046875 C 14.3125 -13.554688 15.117188 -11.710938 16.734375 -10.515625 C 18.347656 -9.316406 20.097656 -8.71875 21.984375 -8.71875 C 23.972656 -8.71875 25.539062 -8.976562 26.6875 -9.5 C 27.84375 -10.03125 29.160156 -11.082031 30.640625 -12.65625 L 39.484375 -8.234375 C 35.796875 -2.054688 29.664062 1.03125 21.09375 1.03125 C 15.75 1.03125 11.160156 -0.796875 7.328125 -4.453125 C 3.503906 -8.117188 1.59375 -12.535156 1.59375 -17.703125 C 1.59375 -22.867188 3.503906 -27.296875 7.328125 -30.984375 C 11.160156 -34.671875 15.75 -36.515625 21.09375 -36.515625 C 26.71875 -36.515625 31.289062 -34.890625 34.8125 -31.640625 C 38.34375 -28.390625 40.109375 -23.742188 40.109375 -17.703125 C 40.109375 -16.867188 40.085938 -16.316406 40.046875 -16.046875 Z M 14.65625 -22.828125 L 28.140625 -22.828125 C 27.867188 -24.671875 27.144531 -26.085938 25.96875 -27.078125 C 24.789062 -28.066406 23.28125 -28.5625 21.4375 -28.5625 C 19.40625 -28.5625 17.789062 -28.03125 16.59375 -26.96875 C 15.394531 -25.90625 14.75 -24.523438 14.65625 -22.828125 Z M 14.65625 -22.828125 "/></g></g></g><g fill="#ffffff" fill-opacity="1"><g transform="translate(92.827892, 140.81711)"><g><path d="M 6.21875 -35.484375 L 6.21875 -48.6875 L 18.46875 -48.6875 L 18.46875 -35.484375 L 25.9375 -35.484375 L 25.9375 -26.140625 L 18.46875 -26.140625 L 18.46875 -14.875 C 18.46875 -11.59375 19.390625 -9.953125 21.234375 -9.953125 C 21.691406 -9.953125 22.171875 -10.046875 22.671875 -10.234375 C 23.179688 -10.421875 23.578125 -10.601562 23.859375 -10.78125 L 24.28125 -11.0625 L 27.3125 -1.171875 C 24.6875 0.296875 21.691406 1.03125 18.328125 1.03125 C 16.023438 1.03125 14.039062 0.628906 12.375 -0.171875 C 10.71875 -0.984375 9.460938 -2.066406 8.609375 -3.421875 C 7.753906 -4.785156 7.140625 -6.210938 6.765625 -7.703125 C 6.398438 -9.203125 6.21875 -10.804688 6.21875 -12.515625 L 6.21875 -26.140625 L 1.109375 -26.140625 L 1.109375 -35.484375 Z M 6.21875 -35.484375 "/></g></g></g><g fill="#ffffff" fill-opacity="1"><g transform="translate(116.688049, 140.81711)"><g><path d="M 5.90625 -56.5 C 7.082031 -57.5625 8.453125 -58.09375 10.015625 -58.09375 C 11.585938 -58.09375 12.972656 -57.5625 14.171875 -56.5 C 15.367188 -55.4375 15.96875 -54.238281 15.96875 -52.90625 L 15.96875 -52.625 C 15.96875 -51.707031 15.609375 -49.597656 14.890625 -46.296875 C 14.179688 -43.003906 13.457031 -39.925781 12.71875 -37.0625 L 11.6875 -32.84375 L 7.046875 -32.84375 C 5.117188 -43.914062 4.15625 -50.507812 4.15625 -52.625 L 4.15625 -52.90625 C 4.15625 -54.238281 4.738281 -55.4375 5.90625 -56.5 Z M 5.90625 -56.5 "/></g></g></g><g fill="#ffffff" fill-opacity="1"><g transform="translate(133.35558, 140.81711)"><g><path d="M 19.578125 -36.515625 C 21.597656 -36.515625 23.597656 -36.28125 25.578125 -35.8125 C 27.566406 -35.351562 29.046875 -34.894531 30.015625 -34.4375 L 31.46875 -33.75 L 27.453125 -25.71875 C 24.691406 -27.195312 22.066406 -27.9375 19.578125 -27.9375 C 18.191406 -27.9375 17.207031 -27.785156 16.625 -27.484375 C 16.050781 -27.191406 15.765625 -26.628906 15.765625 -25.796875 C 15.765625 -25.609375 15.785156 -25.421875 15.828125 -25.234375 C 15.878906 -25.054688 15.972656 -24.882812 16.109375 -24.71875 C 16.253906 -24.5625 16.382812 -24.425781 16.5 -24.3125 C 16.613281 -24.195312 16.804688 -24.066406 17.078125 -23.921875 C 17.359375 -23.785156 17.578125 -23.679688 17.734375 -23.609375 C 17.898438 -23.546875 18.164062 -23.441406 18.53125 -23.296875 C 18.90625 -23.160156 19.179688 -23.054688 19.359375 -22.984375 C 19.546875 -22.921875 19.859375 -22.816406 20.296875 -22.671875 C 20.734375 -22.535156 21.066406 -22.445312 21.296875 -22.40625 C 22.722656 -21.988281 23.96875 -21.523438 25.03125 -21.015625 C 26.09375 -20.515625 27.210938 -19.828125 28.390625 -18.953125 C 29.566406 -18.078125 30.476562 -16.96875 31.125 -15.625 C 31.769531 -14.289062 32.09375 -12.769531 32.09375 -11.0625 C 32.09375 -3 26.488281 1.03125 15.28125 1.03125 C 12.75 1.03125 10.34375 0.640625 8.0625 -0.140625 C 5.78125 -0.921875 4.128906 -1.703125 3.109375 -2.484375 L 1.59375 -3.734375 L 6.5625 -12.109375 C 6.9375 -11.785156 7.421875 -11.398438 8.015625 -10.953125 C 8.617188 -10.515625 9.703125 -9.914062 11.265625 -9.15625 C 12.835938 -8.394531 14.203125 -8.015625 15.359375 -8.015625 C 17.890625 -8.015625 19.15625 -8.867188 19.15625 -10.578125 C 19.15625 -11.359375 18.832031 -11.96875 18.1875 -12.40625 C 17.539062 -12.851562 16.445312 -13.351562 14.90625 -13.90625 C 13.363281 -14.457031 12.148438 -14.960938 11.265625 -15.421875 C 9.054688 -16.578125 7.304688 -17.878906 6.015625 -19.328125 C 4.722656 -20.773438 4.078125 -22.703125 4.078125 -25.109375 C 4.078125 -28.703125 5.472656 -31.5 8.265625 -33.5 C 11.054688 -35.507812 14.828125 -36.515625 19.578125 -36.515625 Z M 19.578125 -36.515625 "/></g></g></g><g fill="#ffffff" fill-opacity="1"><g transform="translate(37.500002, 206.518926)"><g><path d="M 25.9375 0 L 17.640625 0 L -1.390625 -35.484375 L 12.71875 -35.484375 L 21.375 -16.328125 L 29.875 -35.484375 L 38.3125 -35.484375 L 46.8125 -16.328125 L 55.46875 -35.484375 L 69.578125 -35.484375 L 50.546875 0 L 42.25 0 L 34.09375 -18.328125 Z M 25.9375 0 "/></g></g></g><g fill="#ffffff" fill-opacity="1"><g transform="translate(102.23363, 206.518926)"><g><path d="M 7.5 -4.21875 C 3.5625 -7.71875 1.59375 -12.210938 1.59375 -17.703125 C 1.59375 -23.191406 3.644531 -27.695312 7.75 -31.21875 C 11.851562 -34.75 16.921875 -36.515625 22.953125 -36.515625 C 28.898438 -36.515625 33.914062 -34.738281 38 -31.1875 C 42.082031 -27.632812 44.125 -23.140625 44.125 -17.703125 C 44.125 -12.265625 42.128906 -7.78125 38.140625 -4.25 C 34.148438 -0.726562 29.085938 1.03125 22.953125 1.03125 C 16.597656 1.03125 11.445312 -0.71875 7.5 -4.21875 Z M 16.96875 -23.71875 C 15.382812 -22.15625 14.59375 -20.148438 14.59375 -17.703125 C 14.59375 -15.253906 15.351562 -13.257812 16.875 -11.71875 C 18.394531 -10.175781 20.398438 -9.40625 22.890625 -9.40625 C 25.285156 -9.40625 27.253906 -10.1875 28.796875 -11.75 C 30.347656 -13.320312 31.125 -15.304688 31.125 -17.703125 C 31.125 -20.148438 30.328125 -22.15625 28.734375 -23.71875 C 27.140625 -25.289062 25.191406 -26.078125 22.890625 -26.078125 C 20.535156 -26.078125 18.5625 -25.289062 16.96875 -23.71875 Z M 16.96875 -23.71875 "/></g></g></g><g fill="#ffffff" fill-opacity="1"><g transform="translate(144.490306, 206.518926)"><g><path d="M 4.15625 0 L 4.15625 -35.484375 L 16.390625 -35.484375 L 16.390625 -30.359375 L 16.53125 -30.359375 C 16.625 -30.546875 16.769531 -30.773438 16.96875 -31.046875 C 17.175781 -31.328125 17.625 -31.8125 18.3125 -32.5 C 19.007812 -33.195312 19.75 -33.820312 20.53125 -34.375 C 21.320312 -34.925781 22.335938 -35.421875 23.578125 -35.859375 C 24.828125 -36.296875 26.097656 -36.515625 27.390625 -36.515625 C 28.722656 -36.515625 30.035156 -36.328125 31.328125 -35.953125 C 32.617188 -35.585938 33.5625 -35.222656 34.15625 -34.859375 L 35.125 -34.296875 L 30.015625 -23.921875 C 28.492188 -25.210938 26.375 -25.859375 23.65625 -25.859375 C 22.175781 -25.859375 20.90625 -25.535156 19.84375 -24.890625 C 18.78125 -24.242188 18.03125 -23.457031 17.59375 -22.53125 C 17.15625 -21.613281 16.84375 -20.832031 16.65625 -20.1875 C 16.476562 -19.539062 16.390625 -19.035156 16.390625 -18.671875 L 16.390625 0 Z M 4.15625 0 "/></g></g></g><g fill="#ffffff" fill-opacity="1"><g transform="translate(175.47393, 206.518926)"><g><path d="M 44.671875 -35.484375 L 27.796875 -18.53125 L 46.328125 0 L 30.5625 0 L 16.390625 -14.171875 L 16.390625 0 L 4.15625 0 L 4.15625 -59.46875 L 16.390625 -59.46875 L 16.390625 -23.09375 L 28.765625 -35.484375 Z M 44.671875 -35.484375 "/></g></g></g><g fill="#ffffff" fill-opacity="1"><g transform="translate(37.500002, 272.220742)"><g><path d="M 6.21875 -35.484375 L 6.21875 -48.6875 L 18.46875 -48.6875 L 18.46875 -35.484375 L 25.9375 -35.484375 L 25.9375 -26.140625 L 18.46875 -26.140625 L 18.46875 -14.875 C 18.46875 -11.59375 19.390625 -9.953125 21.234375 -9.953125 C 21.691406 -9.953125 22.171875 -10.046875 22.671875 -10.234375 C 23.179688 -10.421875 23.578125 -10.601562 23.859375 -10.78125 L 24.28125 -11.0625 L 27.3125 -1.171875 C 24.6875 0.296875 21.691406 1.03125 18.328125 1.03125 C 16.023438 1.03125 14.039062 0.628906 12.375 -0.171875 C 10.71875 -0.984375 9.460938 -2.066406 8.609375 -3.421875 C 7.753906 -4.785156 7.140625 -6.210938 6.765625 -7.703125 C 6.398438 -9.203125 6.21875 -10.804688 6.21875 -12.515625 L 6.21875 -26.140625 L 1.109375 -26.140625 L 1.109375 -35.484375 Z M 6.21875 -35.484375 "/></g></g></g><g fill="#ffffff" fill-opacity="1"><g transform="translate(61.360159, 272.220742)"><g><path d="M 7.5 -4.21875 C 3.5625 -7.71875 1.59375 -12.210938 1.59375 -17.703125 C 1.59375 -23.191406 3.644531 -27.695312 7.75 -31.21875 C 11.851562 -34.75 16.921875 -36.515625 22.953125 -36.515625 C 28.898438 -36.515625 33.914062 -34.738281 38 -31.1875 C 42.082031 -27.632812 44.125 -23.140625 44.125 -17.703125 C 44.125 -12.265625 42.128906 -7.78125 38.140625 -4.25 C 34.148438 -0.726562 29.085938 1.03125 22.953125 1.03125 C 16.597656 1.03125 11.445312 -0.71875 7.5 -4.21875 Z M 16.96875 -23.71875 C 15.382812 -22.15625 14.59375 -20.148438 14.59375 -17.703125 C 14.59375 -15.253906 15.351562 -13.257812 16.875 -11.71875 C 18.394531 -10.175781 20.398438 -9.40625 22.890625 -9.40625 C 25.285156 -9.40625 27.253906 -10.1875 28.796875 -11.75 C 30.347656 -13.320312 31.125 -15.304688 31.125 -17.703125 C 31.125 -20.148438 30.328125 -22.15625 28.734375 -23.71875 C 27.140625 -25.289062 25.191406 -26.078125 22.890625 -26.078125 C 20.535156 -26.078125 18.5625 -25.289062 16.96875 -23.71875 Z M 16.96875 -23.71875 "/></g></g></g><g fill="#ffffff" fill-opacity="1"><g transform="translate(103.616836, 272.220742)"><g><path d="M 2.5625 8.71875 L 12.59375 3.796875 C 14.4375 6.847656 17.640625 8.375 22.203125 8.375 C 24.316406 8.375 26.285156 7.691406 28.109375 6.328125 C 29.929688 4.960938 30.84375 2.875 30.84375 0.0625 L 30.84375 -2.5625 C 28.675781 -0.164062 24.800781 1.03125 19.21875 1.03125 C 14.101562 1.03125 9.882812 -0.773438 6.5625 -4.390625 C 3.25 -8.003906 1.59375 -12.441406 1.59375 -17.703125 C 1.59375 -22.960938 3.25 -27.410156 6.5625 -31.046875 C 9.882812 -34.691406 14.101562 -36.515625 19.21875 -36.515625 C 23.789062 -36.515625 27.597656 -35.109375 30.640625 -32.296875 L 30.84375 -32.296875 L 30.84375 -35.484375 L 43.078125 -35.484375 L 43.078125 0.96875 C 43.078125 6.726562 41.164062 11.175781 37.34375 14.3125 C 33.519531 17.445312 28.472656 19.015625 22.203125 19.015625 C 12.054688 19.015625 5.507812 15.582031 2.5625 8.71875 Z M 16.96875 -23.71875 C 15.382812 -22.15625 14.59375 -20.148438 14.59375 -17.703125 C 14.59375 -15.253906 15.351562 -13.257812 16.875 -11.71875 C 18.394531 -10.175781 20.398438 -9.40625 22.890625 -9.40625 C 25.285156 -9.40625 27.253906 -10.1875 28.796875 -11.75 C 30.347656 -13.320312 31.125 -15.304688 31.125 -17.703125 C 31.125 -20.148438 30.328125 -22.15625 28.734375 -23.71875 C 27.140625 -25.289062 25.191406 -26.078125 22.890625 -26.078125 C 20.535156 -26.078125 18.5625 -25.289062 16.96875 -23.71875 Z M 16.96875 -23.71875 "/></g></g></g><g fill="#ffffff" fill-opacity="1"><g transform="translate(147.395028, 272.220742)"><g><path d="M 40.046875 -16.046875 L 14.3125 -16.046875 C 14.3125 -13.554688 15.117188 -11.710938 16.734375 -10.515625 C 18.347656 -9.316406 20.097656 -8.71875 21.984375 -8.71875 C 23.972656 -8.71875 25.539062 -8.976562 26.6875 -9.5 C 27.84375 -10.03125 29.160156 -11.082031 30.640625 -12.65625 L 39.484375 -8.234375 C 35.796875 -2.054688 29.664062 1.03125 21.09375 1.03125 C 15.75 1.03125 11.160156 -0.796875 7.328125 -4.453125 C 3.503906 -8.117188 1.59375 -12.535156 1.59375 -17.703125 C 1.59375 -22.867188 3.503906 -27.296875 7.328125 -30.984375 C 11.160156 -34.671875 15.75 -36.515625 21.09375 -36.515625 C 26.71875 -36.515625 31.289062 -34.890625 34.8125 -31.640625 C 38.34375 -28.390625 40.109375 -23.742188 40.109375 -17.703125 C 40.109375 -16.867188 40.085938 -16.316406 40.046875 -16.046875 Z M 14.65625 -22.828125 L 28.140625 -22.828125 C 27.867188 -24.671875 27.144531 -26.085938 25.96875 -27.078125 C 24.789062 -28.066406 23.28125 -28.5625 21.4375 -28.5625 C 19.40625 -28.5625 17.789062 -28.03125 16.59375 -26.96875 C 15.394531 -25.90625 14.75 -24.523438 14.65625 -22.828125 Z M 14.65625 -22.828125 "/></g></g></g><g fill="#ffffff" fill-opacity="1"><g transform="translate(185.64043, 272.220742)"><g><path d="M 6.21875 -35.484375 L 6.21875 -48.6875 L 18.46875 -48.6875 L 18.46875 -35.484375 L 25.9375 -35.484375 L 25.9375 -26.140625 L 18.46875 -26.140625 L 18.46875 -14.875 C 18.46875 -11.59375 19.390625 -9.953125 21.234375 -9.953125 C 21.691406 -9.953125 22.171875 -10.046875 22.671875 -10.234375 C 23.179688 -10.421875 23.578125 -10.601562 23.859375 -10.78125 L 24.28125 -11.0625 L 27.3125 -1.171875 C 24.6875 0.296875 21.691406 1.03125 18.328125 1.03125 C 16.023438 1.03125 14.039062 0.628906 12.375 -0.171875 C 10.71875 -0.984375 9.460938 -2.066406 8.609375 -3.421875 C 7.753906 -4.785156 7.140625 -6.210938 6.765625 -7.703125 C 6.398438 -9.203125 6.21875 -10.804688 6.21875 -12.515625 L 6.21875 -26.140625 L 1.109375 -26.140625 L 1.109375 -35.484375 Z M 6.21875 -35.484375 "/></g></g></g><g fill="#ffffff" fill-opacity="1"><g transform="translate(209.500587, 272.220742)"><g><path d="M 4.15625 0 L 4.15625 -59.46875 L 16.390625 -59.46875 L 16.390625 -31.75 L 16.53125 -31.75 C 19.707031 -34.925781 23.09375 -36.515625 26.6875 -36.515625 C 28.445312 -36.515625 30.191406 -36.28125 31.921875 -35.8125 C 33.648438 -35.351562 35.304688 -34.640625 36.890625 -33.671875 C 38.484375 -32.710938 39.773438 -31.34375 40.765625 -29.5625 C 41.753906 -27.789062 42.25 -25.726562 42.25 -23.375 L 42.25 0 L 30.015625 0 L 30.015625 -20.0625 C 30.015625 -21.90625 29.425781 -23.515625 28.25 -24.890625 C 27.070312 -26.273438 25.539062 -26.96875 23.65625 -26.96875 C 21.8125 -26.96875 20.140625 -26.253906 18.640625 -24.828125 C 17.140625 -23.398438 16.390625 -21.8125 16.390625 -20.0625 L 16.390625 0 Z M 4.15625 0 "/></g></g></g><g fill="#ffffff" fill-opacity="1"><g transform="translate(251.757263, 272.220742)"><g><path d="M 40.046875 -16.046875 L 14.3125 -16.046875 C 14.3125 -13.554688 15.117188 -11.710938 16.734375 -10.515625 C 18.347656 -9.316406 20.097656 -8.71875 21.984375 -8.71875 C 23.972656 -8.71875 25.539062 -8.976562 26.6875 -9.5 C 27.84375 -10.03125 29.160156 -11.082031 30.640625 -12.65625 L 39.484375 -8.234375 C 35.796875 -2.054688 29.664062 1.03125 21.09375 1.03125 C 15.75 1.03125 11.160156 -0.796875 7.328125 -4.453125 C 3.503906 -8.117188 1.59375 -12.535156 1.59375 -17.703125 C 1.59375 -22.867188 3.503906 -27.296875 7.328125 -30.984375 C 11.160156 -34.671875 15.75 -36.515625 21.09375 -36.515625 C 26.71875 -36.515625 31.289062 -34.890625 34.8125 -31.640625 C 38.34375 -28.390625 40.109375 -23.742188 40.109375 -17.703125 C 40.109375 -16.867188 40.085938 -16.316406 40.046875 -16.046875 Z M 14.65625 -22.828125 L 28.140625 -22.828125 C 27.867188 -24.671875 27.144531 -26.085938 25.96875 -27.078125 C 24.789062 -28.066406 23.28125 -28.5625 21.4375 -28.5625 C 19.40625 -28.5625 17.789062 -28.03125 16.59375 -26.96875 C 15.394531 -25.90625 14.75 -24.523438 14.65625 -22.828125 Z M 14.65625 -22.828125 "/></g></g></g><g fill="#ffffff" fill-opacity="1"><g transform="translate(290.002673, 272.220742)"><g><path d="M 4.15625 0 L 4.15625 -35.484375 L 16.390625 -35.484375 L 16.390625 -30.359375 L 16.53125 -30.359375 C 16.625 -30.546875 16.769531 -30.773438 16.96875 -31.046875 C 17.175781 -31.328125 17.625 -31.8125 18.3125 -32.5 C 19.007812 -33.195312 19.75 -33.820312 20.53125 -34.375 C 21.320312 -34.925781 22.335938 -35.421875 23.578125 -35.859375 C 24.828125 -36.296875 26.097656 -36.515625 27.390625 -36.515625 C 28.722656 -36.515625 30.035156 -36.328125 31.328125 -35.953125 C 32.617188 -35.585938 33.5625 -35.222656 34.15625 -34.859375 L 35.125 -34.296875 L 30.015625 -23.921875 C 28.492188 -25.210938 26.375 -25.859375 23.65625 -25.859375 C 22.175781 -25.859375 20.90625 -25.535156 19.84375 -24.890625 C 18.78125 -24.242188 18.03125 -23.457031 17.59375 -22.53125 C 17.15625 -21.613281 16.84375 -20.832031 16.65625 -20.1875 C 16.476562 -19.539062 16.390625 -19.035156 16.390625 -18.671875 L 16.390625 0 Z M 4.15625 0 "/></g></g></g></svg>